HIERARCHY
ROOT Hips
{
	OFFSET 0.000000 0.000000 0.000000
	CHANNELS 6 Xposition Yposition Zposition Yrotation Xrotation Zrotation
	JOINT Chest
	{
		OFFSET 0.000000 -0.009281 11.569106
		CHANNELS 3 Yrotation Xrotation Zrotation
		JOINT Chest2
		{
			OFFSET -0.000000 0.016865 9.269641
			CHANNELS 3 Yrotation Xrotation Zrotation
			JOINT Chest3
			{
				OFFSET -0.000000 0.000001 8.374491
				CHANNELS 3 Yrotation Xrotation Zrotation
				JOINT Chest4
				{
					OFFSET -0.000000 0.000001 8.374493
					CHANNELS 3 Yrotation Xrotation Zrotation
					JOINT Neck
					{
						OFFSET -0.000000 0.000002 12.152554
						CHANNELS 3 Yrotation Xrotation Zrotation
						JOINT Head
						{
							OFFSET -0.000000 0.040101 7.802319
							CHANNELS 3 Yrotation Xrotation Zrotation
							End Site
							{
								OFFSET -0.000000 0.020947 14.853096
							}
						}
					}
					JOINT RightCollar
					{
						OFFSET 2.894404 0.000001 6.791374
						CHANNELS 3 Yrotation Xrotation Zrotation
						JOINT RightShoulder
						{
							OFFSET 13.574684 0.000001 0.000000
							CHANNELS 3 Yrotation Xrotation Zrotation
							JOINT RightElbow
							{
								OFFSET 23.923903 0.000002 0.000000
								CHANNELS 3 Yrotation Xrotation Zrotation
								JOINT RightWrist
								{
									OFFSET 19.846718 0.012767 0.000000
									CHANNELS 3 Yrotation Xrotation Zrotation
									End Site
									{
										OFFSET 14.973145 0.000001 0.000000
									}
								}
							}
						}
					}
					JOINT LeftCollar
					{
						OFFSET -2.894404 0.000001 6.791374
						CHANNELS 3 Yrotation Xrotation Zrotation
						JOINT LeftShoulder
						{
							OFFSET -13.574684 -0.000001 0.000000
							CHANNELS 3 Yrotation Xrotation Zrotation
							JOINT LeftElbow
							{
								OFFSET -23.923903 -0.000002 0.000000
								CHANNELS 3 Yrotation Xrotation Zrotation
								JOINT LeftWrist
								{
									OFFSET -19.846718 0.012763 0.000000
									CHANNELS 3 Yrotation Xrotation Zrotation
									End Site
									{
										OFFSET -14.973145 -0.000001 0.000000
									}
								}
							}
						}
					}
				}
			}
		}
	}
	JOINT RightHip
	{
		OFFSET 9.469263 0.004643 0.045487
		CHANNELS 3 Yrotation Xrotation Zrotation
		JOINT RightKnee
		{
			OFFSET 0.000000 0.002661 -40.478676
			CHANNELS 3 Yrotation Xrotation Zrotation
			JOINT RightAnkle
			{
				OFFSET 0.000000 0.049106 -35.224068
				CHANNELS 3 Yrotation Xrotation Zrotation
				JOINT RightToe
				{
					OFFSET -0.000001 12.539529 -6.151390
					CHANNELS 3 Yrotation Xrotation Zrotation
					End Site
					{
						OFFSET -0.000001 5.044994 -1.291870
					}
				}
			}
		}
	}
	JOINT LeftHip
	{
		OFFSET -9.469263 0.004641 0.045487
		CHANNELS 3 Yrotation Xrotation Zrotation
		JOINT LeftKnee
		{
			OFFSET 0.000000 0.002661 -40.478676
			CHANNELS 3 Yrotation Xrotation Zrotation
			JOINT LeftAnkle
			{
				OFFSET 0.000000 0.049106 -35.224068
				CHANNELS 3 Yrotation Xrotation Zrotation
				JOINT LeftToe
				{
					OFFSET -0.000001 12.539529 -6.151390
					CHANNELS 3 Yrotation Xrotation Zrotation
					End Site
					{
						OFFSET -0.000001 5.044994 -1.291870
					}
				}
			}
		}
	}
}
MOTION
Frames: 8
Frame Time: 0.016667
6.832570 4.179502 83.069160 -6.546632 -0.773147 -113.955723 2.329261 -6.029320 2.127598 1.051656 -2.638908 1.028693 1.051657 -2.638909 1.028696 0.793048 -1.977425 0.775928 -6.358443 -15.358536 13.872250 -6.745691 7.600555 23.537961 6.810435 6.912680 -2.398485 38.648509 -13.124904 -13.161418 46.741075 -62.010311 56.908873 31.101768 -6.359529 -17.461705 -6.342250 6.984164 -9.103293 -32.769195 27.193795 -26.762226 9.599975 19.437747 14.010513 63.868532 15.578309 -15.787791 -2.976235 -2.231363 4.917154 1.549879 -10.774940 4.953168 -0.439700 6.740652 -3.129265 0.281340 -0.035362 -0.022853 -3.674143 -6.446785 3.434798 -0.442568 -5.362411 5.787015 1.542706 5.770888 0.982026 -0.056876 0.052904 0.002052 
6.878119 4.237675 83.068169 -6.657016 -0.796867 -113.928286 2.442190 -5.912491 1.920622 1.099662 -2.582120 0.941688 1.099662 -2.582121 0.941693 0.828588 -1.934909 0.710798 -6.340567 -15.432814 13.869415 -6.723878 7.461552 23.534827 6.954150 6.761128 -2.498683 38.530060 -13.153777 -12.739938 46.838326 -61.928717 56.772860 31.911327 -6.111062 -17.800914 -6.892046 6.595399 -9.952620 -33.093219 27.504079 -28.583152 9.530055 21.265198 13.801160 64.103511 17.146601 -15.625171 -3.045338 -2.335309 4.748047 1.532995 -10.837690 5.039363 -0.462351 6.792818 -3.097940 0.272061 -0.042648 -0.018315 -3.745152 -6.531302 3.413101 -0.447608 -5.440720 5.805621 1.598306 5.826320 0.966091 -0.050298 0.057411 0.003516 
6.933043 4.285137 83.068825 -6.738409 -0.830984 -113.879403 2.558982 -5.809832 1.746151 1.148480 -2.536402 0.864875 1.148481 -2.536403 0.864874 0.864813 -1.900689 0.653323 -6.288497 -15.492370 13.805167 -6.658502 7.349295 23.430802 7.059059 6.702761 -2.627112 38.404654 -13.226140 -12.463715 47.411850 -61.721640 56.261894 32.537269 -5.941677 -17.953524 -6.853006 5.679513 -10.131802 -34.855091 28.291591 -31.653699 9.421773 22.463847 13.235882 64.433990 17.992708 -15.040908 -3.081229 -2.453340 4.674541 1.518615 -10.846141 5.053131 -0.473564 6.823209 -3.103394 0.258446 -0.042255 -0.007829 -3.785877 -6.613713 3.426595 -0.451803 -5.496755 5.817337 1.638803 5.885477 0.904919 -0.038742 0.054747 0.005087 
6.991313 4.328819 83.069412 -6.803368 -0.866845 -113.826236 2.674922 -5.738645 1.607727 1.200373 -2.508603 0.801154 1.200373 -2.508603 0.801152 0.903427 -1.879892 0.605701 -6.210849 -15.527752 13.684207 -6.562483 7.282030 23.232030 7.051428 6.606034 -2.880425 38.265175 -13.223801 -12.055147 48.656287 -61.450823 55.181734 32.904713 -5.924899 -18.058139 -6.287512 4.095426 -9.988007 -37.583454 29.233930 -35.658686 9.369887 23.116975 12.768929 64.757051 18.575118 -14.245332 -3.108848 -2.559336 4.731118 1.530930 -10.849435 4.986775 -0.477484 6.849444 -3.181405 0.236098 -0.035555 -0.006902 -3.812916 -6.689084 3.466663 -0.461805 -5.543385 5.827555 1.667846 5.947440 0.834204 -0.019283 0.048205 0.008332 
7.044165 4.375007 83.069130 -6.869312 -0.905393 -113.785262 2.803128 -5.645840 1.451306 1.259207 -2.474648 0.726556 1.259206 -2.474648 0.726558 0.947204 -1.854502 0.549939 -6.129480 -15.592620 13.565591 -6.462706 7.159822 23.037260 6.995058 6.401773 -3.077751 38.054378 -13.150249 -11.536282 50.118856 -61.230549 53.922796 33.110227 -5.967271 -18.177579 -5.552705 1.758784 -10.242772 -40.197753 30.401537 -39.685592 9.289861 23.781423 12.565095 64.893293 18.856539 -13.525336 -3.153729 -2.647867 4.886192 1.586289 -10.873700 4.851790 -0.480095 6.876273 -3.240733 0.209744 -0.023204 -0.012338 -3.841286 -6.763851 3.508750 -0.465509 -5.589189 5.846170 1.683003 6.007498 0.764594 0.003798 0.041125 0.010889 
7.092310 4.423851 83.067757 -6.961075 -0.949840 -113.748686 2.945196 -5.543942 1.247423 1.323922 -2.435959 0.631320 1.323921 -2.435959 0.631319 0.995311 -1.825615 0.478699 -6.053504 -15.699504 13.463200 -6.372755 6.959867 22.868300 6.871514 6.393840 -3.125989 37.845692 -13.218364 -11.107959 51.188774 -61.156134 53.033017 33.295649 -5.925542 -18.341001 -5.334394 0.207801 -11.214423 -41.470245 30.909242 -42.072500 9.125056 24.872426 12.399589 64.751621 19.013134 -12.936679 -3.201818 -2.747143 5.052285 1.644555 -10.917639 4.692022 -0.481497 6.908134 -3.285953 0.186384 -0.011735 -0.021774 -3.887385 -6.866636 3.530032 -0.452617 -5.618058 5.870910 1.695059 6.052855 0.725447 0.021866 0.034119 0.013789 
7.132667 4.469641 83.065239 -7.067887 -1.007372 -113.736344 3.081822 -5.424156 1.028820 1.383319 -2.392756 0.524828 1.383319 -2.392756 0.524831 1.039396 -1.793392 0.398986 -5.966380 -15.844021 13.363837 -6.266047 6.688887 22.706952 6.879598 6.512350 -3.036251 37.578014 -13.388366 -10.798194 51.628331 -61.206650 52.689152 33.552297 -5.722411 -18.582957 -5.255219 -0.806362 -11.747043 -42.563734 30.528849 -44.235850 8.947886 26.083292 12.118311 64.560806 19.359652 -12.128481 -3.243112 -2.859521 5.165860 1.681638 -10.971628 4.581204 -0.480182 6.939598 -3.266044 0.172208 0.002673 -0.021559 -3.923055 -6.997863 3.537511 -0.446971 -5.617316 5.888649 1.712610 6.083469 0.727086 0.033636 0.021311 0.014633 
7.176652 4.514626 83.062096 -7.193786 -1.074157 -113.735272 3.206711 -5.344311 0.792686 1.439245 -2.359683 0.418025 1.439245 -2.359684 0.418024 1.080896 -1.768792 0.319037 -5.876377 -15.975128 13.255066 -6.155320 6.442864 22.530028 6.846801 6.508507 -3.015319 37.386420 -13.538189 -10.372551 51.670207 -61.265861 52.682181 33.911230 -5.452970 -18.822166 -5.013357 -1.742529 -12.031264 -44.197683 29.979917 -46.766162 8.877943 27.030037 11.697649 64.415418 19.797353 -11.073952 -3.280039 -2.996593 5.177643 1.692506 -11.016072 4.557106 -0.474069 6.970424 -3.235981 0.159233 0.008170 -0.027389 -3.962450 -7.165668 3.523560 -0.443207 -5.595928 5.910887 1.736881 6.102951 0.746521 0.040975 0.014798 0.016526 
